<svg width="130" height="110" viewBox="0 0 130 110" fill="none" xmlns="http://www.w3.org/2000/svg">
<path d="M1.05926 110H71L43.571 50.0252C43.571 50.0252 7.38252 47.9346 13.1517 81.8037C13.1517 81.8037 -4.43076 94.4187 1.06349 110H1.05926Z" fill="url(#paint0_linear_1_1391)"/>
<path d="M47.0948 67.3875C46.5884 69.2523 44.9988 70.7629 43.8951 71.1698C42.4899 71.688 41.4097 70.5375 42.0859 69.6211C42.7592 68.7048 44.1381 69.1264 45.4701 67.5397C45.5228 67.4753 45.5755 67.4109 45.6223 67.3436C46.36 66.3336 46.442 64.984 45.9297 63.8393C44.8641 61.4622 43.254 59.0822 41.3072 56.8748C41.4741 58.1571 41.3335 59.5506 41.2047 60.6045C40.9705 62.5161 39.9254 64.4102 38.9008 63.8598C37.8762 63.3095 38.6812 61.5559 39.779 59.2871C39.9401 58.9563 40.0601 58.6138 40.1479 58.2713C40.4933 56.9334 40.0776 55.5136 39.0764 54.5621C38.4529 53.9678 37.8059 53.397 37.1443 52.8466C36.6496 52.4368 36.1577 52.0562 35.6718 51.699C35.9177 52.5949 35.9762 53.5961 35.7303 54.8461C35.4464 56.2864 34.1729 57.6828 33.7543 56.626C33.3356 55.5692 33.9475 55.5194 34.4627 53.4058C34.4744 53.3589 34.4832 53.315 34.4949 53.2682C34.7818 51.9801 34.211 50.6451 33.0692 49.9835C31.8953 49.3014 30.7741 48.7686 29.7143 48.35C30.3057 49.5766 30.8297 51.0989 30.6687 51.7459C30.414 52.7705 29.0059 52.7734 29.0234 50.6861C29.0234 50.4519 29.0205 50.2324 29.0059 50.0245C28.9268 48.7686 28.0164 47.7147 26.7927 47.4249C24.7493 46.936 23.1158 46.8833 22.0794 46.9302C21.5496 46.9536 21.2305 47.5157 21.4647 47.9928C21.8511 48.7774 22.1175 49.8342 22.2726 51.0813C22.4307 52.3343 23.2592 53.435 24.4653 53.801C24.5502 53.8273 24.6381 53.8507 24.7288 53.8712C26.6814 54.3104 26.0228 55.7009 25.1182 55.4814C24.319 55.2881 23.347 54.8402 22.4219 53.9093C22.3839 54.6382 22.2785 55.7448 22.1848 57.1003C22.1263 57.9609 22.6093 58.7719 23.3997 59.1202C23.8593 59.3222 24.398 59.4745 25.0216 59.5184C27.4602 59.6882 28.1188 60.6396 27.3401 61.471C26.6346 62.2234 23.9472 61.43 22.0531 59.7701C22.0062 61.4125 22.0238 63.2304 22.2024 65.0894C22.3166 66.2897 23.2241 67.2557 24.4097 67.4694C25.6041 67.6861 26.8951 67.7885 28.0661 67.6041C31.4972 67.0684 31.0405 69.75 29.0586 70.0661C27.709 70.2798 24.8752 69.8495 22.8552 69.103C23.3939 71.322 24.2487 73.4591 25.5836 75.2683C26.4941 76.5066 28.2096 76.8989 29.5504 76.1495C29.5592 76.1436 29.568 76.1407 29.5767 76.1348C31.7665 74.8906 32.5218 73.9275 33.4381 74.6711C34.3544 75.4147 32.8965 77.9089 29.7963 78.0084C29.2606 78.026 28.7775 78.0172 28.3355 77.9967C28.8829 78.3861 29.4772 78.7403 30.1212 79.0506C39.7088 83.6614 42.6363 77.7332 42.6363 77.7332C46.7845 75.1863 47.9145 71.4274 47.1007 67.3904L47.0948 67.3875Z" fill="url(#paint1_linear_1_1391)"/>
<path d="M22.8728 47.8726C26.0198 50.4341 30.9263 54.0203 34.2929 62.2173C37.6596 70.4142 42.0479 78.3185 46.7318 81.3923" stroke="white" stroke-width="0.63" stroke-miterlimit="10"/>
<path d="M29.8988 58.4837C29.8168 58.7852 29.2987 58.9082 28.7424 58.756C28.1862 58.6037 27.8027 58.2349 27.8847 57.9333C27.9667 57.6318 28.4848 57.5088 29.041 57.6611C29.5973 57.8133 29.9808 58.1822 29.8988 58.4837Z" fill="#73D9AB"/>
<path d="M40.5548 66.6654C40.6104 66.9728 40.1918 67.3036 39.6268 67.4061C39.0589 67.5056 38.5553 67.3358 38.5026 67.0284C38.447 66.721 38.8656 66.3902 39.4306 66.2878C39.9986 66.1882 40.5021 66.358 40.5548 66.6654Z" fill="#73D9AB"/>
<path d="M33.274 64.5131C33.233 65.201 32.1732 65.6929 30.9115 65.6167C29.6497 65.5406 28.6573 64.92 28.7012 64.235C28.7451 63.5499 29.8019 63.0523 31.0637 63.1313C32.3254 63.2074 33.3179 63.828 33.274 64.5131Z" fill="#73D9AB"/>
<path d="M35.7187 69.48C36.1696 69.8869 35.9266 70.891 35.1771 71.7195C34.4277 72.548 33.4558 72.8905 33.0049 72.4836C32.5541 72.0767 32.7971 71.0725 33.5465 70.2441C34.296 69.4156 35.2679 69.0731 35.7187 69.48Z" fill="#73D9AB"/>
<path d="M32.1559 55.0311C31.8427 55.0603 31.547 54.6212 31.4914 54.0474C31.4358 53.4736 31.6465 52.9848 31.9569 52.9555C32.2701 52.9262 32.5658 53.3653 32.6214 53.9391C32.677 54.5129 32.4662 55.0018 32.1559 55.0311Z" fill="#73D9AB"/>
<path d="M35.8357 62.7036C35.2999 62.5572 35.0804 61.638 35.3526 60.6485C35.6219 59.6619 36.2777 58.9798 36.8134 59.1262C37.3492 59.2726 37.5687 60.1918 37.2965 61.1813C37.0271 62.1679 36.3714 62.85 35.8357 62.7036Z" fill="#73D9AB"/>
<path d="M112.447 78.5491C112.693 77.3371 114.475 77.6006 116.27 78.3442L116.282 78.35C116.803 78.5637 117.403 78.3266 117.628 77.8114C118.088 76.775 118.46 75.7416 118.738 74.758C118.861 74.3277 118.969 73.8973 119.066 73.4699C117.435 74.5384 114.994 74.5824 115.02 73.5314C115.04 72.577 116.431 72.536 117.892 72.8581H117.906C118.597 73.0103 119.268 72.5478 119.385 71.8481C119.654 70.2204 119.768 68.6747 119.795 67.3075C118.603 68.8123 116.387 69.629 116.062 68.6483C115.761 67.7437 117.058 67.2373 118.542 67.0499H118.559C119.279 66.9533 119.809 66.3268 119.786 65.6008C119.719 63.414 119.461 62 119.461 62C117.546 62.2459 115.81 62.6031 114.235 63.048C113.957 63.1271 113.773 63.3876 113.785 63.6775V63.6833C113.846 65.1793 113.565 66.5405 112.622 66.3942C111.835 66.2741 111.914 64.8631 112.581 63.5721C111.214 64.0492 109.985 64.5996 108.878 65.2056C108.29 65.5276 108 66.2156 108.199 66.8567C108.486 67.7847 108.708 69.0435 107.833 69.3861C107.04 69.6964 106.589 67.9955 106.879 66.4469C105.986 67.0763 105.192 67.7437 104.487 68.4405C103.931 68.9879 103.802 69.834 104.162 70.5278L104.171 70.5424C105.049 72.2169 105.462 73.9237 104.308 74.2662C103.222 74.5882 102.508 72.4599 102.795 70.3726C101.635 71.9037 100.822 73.4992 100.254 75.0361C100.049 75.5894 100.242 76.213 100.731 76.5408L100.743 76.5467C102.001 77.3898 102.944 78.432 102.262 79.1141C101.609 79.7699 100.257 78.4847 99.6741 76.8629C99.273 78.3822 99.0886 79.7874 99.0124 80.9409C99.0066 81.017 99.0037 81.0931 99.0007 81.1692C98.9802 81.6113 99.3901 81.9479 99.8204 81.8455H99.8292C101.07 81.5439 102.253 81.5527 102.291 82.3636C102.329 83.2214 100.423 83.2653 99.0242 82.4954C99.3784 86.872 102.479 88.6899 102.479 88.6899C104.818 89.0295 106.964 88.6138 108.887 87.7004C107.827 86.9569 107.201 85.941 107.76 85.4756C108.275 85.0452 108.899 85.4346 109.472 86.1664C109.862 86.6612 110.579 86.749 111.088 86.3743C111.902 85.7771 112.663 85.0921 113.372 84.3426C111.331 84.4831 109.065 83.2477 109.633 82.3022C110.146 81.4473 111.428 82.1324 112.587 83.1804L112.599 83.1921C113.161 83.6986 114.033 83.6225 114.505 83.0282C115.336 81.9801 116.068 80.856 116.697 79.7055C114.555 80.2383 112.221 79.7055 112.455 78.5462L112.447 78.5491Z" fill="url(#paint2_linear_1_1391)"/>
<path d="M118.776 62.5854C118.776 62.5854 105.45 73.2884 102.145 90.5225" stroke="white" stroke-width="0.63" stroke-linecap="round" stroke-linejoin="round"/>
<path d="M110.878 68.7182C110.588 68.7445 110.31 68.2732 110.257 67.6672C110.204 67.0612 110.398 66.5518 110.687 66.5255C110.977 66.4991 111.255 66.9704 111.308 67.5764C111.361 68.1824 111.168 68.6918 110.878 68.7182Z" fill="#85DBAA"/>
<path d="M107.084 74.3188C106.668 74.3539 106.27 73.6835 106.197 72.817C106.12 71.9505 106.396 71.2215 106.811 71.1834C107.227 71.1483 107.625 71.8187 107.698 72.6853C107.771 73.5518 107.499 74.2807 107.084 74.3188Z" fill="#85DBAA"/>
<path d="M113.454 75.7579C113.463 76.2673 112.537 76.7006 111.387 76.7211C110.236 76.7415 109.294 76.3463 109.285 75.837C109.276 75.3276 110.201 74.8943 111.352 74.8738C112.502 74.8533 113.445 75.2485 113.454 75.7579Z" fill="#85DBAA"/>
<path d="M110.676 80.1527C110.585 80.5333 109.815 80.6767 108.954 80.4747C108.094 80.2727 107.47 79.7956 107.561 79.4121C107.652 79.0315 108.422 78.888 109.282 79.09C110.143 79.295 110.767 79.7692 110.676 80.1527Z" fill="#85DBAA"/>
<path d="M115.123 71.1981C115.175 71.5465 114.628 71.9212 113.899 72.0325C113.17 72.1437 112.535 71.9505 112.482 71.6021C112.429 71.2538 112.977 70.879 113.706 70.7678C114.435 70.6565 115.07 70.8498 115.123 71.1981Z" fill="#85DBAA"/>
<path d="M73.6175 95.9167H48.1541C43.9825 95.9167 40.2733 92.7931 39.8723 88.9405L32.0354 13.9762C31.6343 10.1236 34.6906 7 38.8623 7H64.3256C68.4973 7 72.2064 10.1236 72.6075 13.9762L80.4414 88.9405C80.8454 92.7931 77.7891 95.9167 73.6175 95.9167Z" fill="url(#paint3_linear_1_1391)"/>
<path d="M78.243 95.9167H52.7797C48.608 95.9167 44.8989 92.7931 44.4978 88.9405L36.6639 13.9762C36.2599 10.1236 39.3162 7 43.4879 7H68.9512C73.1229 7 76.832 10.1236 77.2331 13.9762L85.067 88.9405C85.471 92.7931 82.4147 95.9167 78.243 95.9167Z" fill="#1051B3"/>
<path opacity="0.5" d="M69.1943 9.34131H63.6847C63.2661 9.34131 62.9236 9.59307 62.8387 9.96194C62.666 10.7026 61.9751 11.209 61.1349 11.209H52.1855C51.3454 11.209 50.5491 10.7026 50.2212 9.96194C50.0573 9.59307 49.662 9.34131 49.2463 9.34131H43.7368C40.9645 9.34131 38.9357 11.4169 39.2021 13.9755L47.0361 88.9398C47.3025 91.4984 49.7674 93.574 52.5398 93.574H78.0031C80.7754 93.574 82.8042 91.4984 82.5378 88.9398L74.698 13.9755C74.4316 11.4169 71.9666 9.34131 69.1943 9.34131Z" fill="white"/>
<path d="M58.4474 9.89548H52.2675C52.0626 9.89548 51.881 9.74325 51.8635 9.55297C51.843 9.36561 51.9923 9.21045 52.1972 9.21045H58.3771C58.5821 9.21045 58.7636 9.36268 58.7811 9.55297C58.8016 9.74033 58.6523 9.89548 58.4474 9.89548Z" fill="#16367C"/>
<path d="M61.1113 9.55707C61.1523 9.95521 60.8361 10.2802 60.4058 10.2802C59.9754 10.2802 59.589 9.95521 59.548 9.55707C59.507 9.15894 59.8232 8.83398 60.2535 8.83398C60.6839 8.83398 61.0703 9.15894 61.1113 9.55707Z" fill="#16367C"/>
<path d="M36.0521 30.7689C35.5574 30.7689 35.1153 30.3971 35.0685 29.9404L33.9268 19.0121C33.8799 18.5554 34.2429 18.1836 34.7377 18.1836C35.2324 18.1836 35.6745 18.5554 35.7213 19.0121L36.863 29.9404C36.9099 30.3971 36.5469 30.7689 36.0521 30.7689Z" fill="#3C72E8"/>
<path d="M37.7118 46.6497C37.217 46.6497 36.775 46.2779 36.7281 45.8213L35.5864 34.8929C35.5396 34.4362 35.9026 34.0645 36.3973 34.0645C36.8921 34.0645 37.3341 34.4362 37.381 34.8929L38.5227 45.8213C38.5695 46.2779 38.2065 46.6497 37.7118 46.6497Z" fill="#3C72E8"/>
<path d="M82.8661 88.9182L78.1294 43.5801C75.9045 42.0373 73.5742 40.5589 71.1473 39.1567C61.0533 33.328 50.649 29.613 41 28L47.3673 88.9182C47.6337 91.4768 50.0986 93.5524 52.871 93.5524H78.3343C81.1066 93.5524 83.1354 91.4768 82.869 88.9182H82.8661Z" fill="url(#paint4_linear_1_1391)" fill-opacity="0.5"/>
<path d="M47.0329 88.9406C47.2993 91.4992 49.7642 93.5748 52.5366 93.5748H77.9999C80.7722 93.5748 82.801 91.4992 82.5346 88.9406L82.4907 88.5161H46.989L47.0329 88.9406Z" fill="url(#paint5_linear_1_1391)"/>
<path d="M75.963 92.0714C75.2692 91.2165 73.8347 90.8769 73.1058 90.754C72.8247 90.7072 72.5906 90.5139 72.491 90.2475L71.5103 87.6187H67.6314L69.0629 91.2048L69.0746 92.0772C69.0776 92.4197 69.3586 92.6949 69.6982 92.6949H71.3083C71.2468 92.4373 71.2176 92.1358 71.4254 92.0977C71.645 92.0567 71.967 92.4051 72.1953 92.6949H75.6556C75.9747 92.6949 76.1621 92.3231 75.9601 92.0743L75.963 92.0714Z" fill="#805737"/>
<path d="M71.5131 87.6157H67.6342L68.5885 90.0075L72.1659 89.3722L71.5131 87.6157Z" fill="#593D26"/>
<path d="M64.6044 49.1176C64.6044 49.1176 63.8257 55.9972 62.9474 60.3152C62.9474 60.3152 65.1431 64.926 67.0459 69.7564C68.9488 74.5867 72.169 88.0532 72.169 88.0532H66.5336C66.5336 88.0532 64.6483 85.5648 64.6044 83.5888C64.6044 83.5888 62.0692 79.2707 61.4837 77.2947L57.9707 72.3179C57.9707 72.3179 56.2142 75.0259 54.8968 76.0505C53.5795 77.0751 45.8363 80.4241 45.8363 80.4241L45.2244 74.5779L46.9897 73.4274C46.9897 73.4274 51.5888 69.9906 52.8388 68.8459L53.6497 63.4593C53.6497 63.4593 51.2668 57.4258 50.8598 54.9696C50.3563 51.9221 51.7352 49.1146 51.7352 49.1146V47.6509L64.6015 49.1146L64.6044 49.1176Z" fill="#FFB637"/>
<path d="M64.4462 50.4461C64.5458 49.6265 64.6043 49.12 64.6043 49.12L51.738 47.6562V49.12C51.738 49.12 51.3779 49.8548 51.0939 50.976C52.9295 52.3783 56.015 52.0416 57.9706 51.1692C60.0199 50.2559 60.3126 51.1312 61.9579 51.1692C62.9444 51.1897 63.8637 50.7799 64.4433 50.4461H64.4462Z" fill="#C9810C"/>
<path d="M54.2936 48.6851C54.2936 48.6851 54.6888 53.9487 50.804 54.5342" stroke="#9E6509" stroke-width="0.4" stroke-miterlimit="10"/>
<path d="M63.7613 55.542L60.2102 54.1485L59.9848 53.6216C59.9848 53.6216 61.4134 56.9589 62.9474 60.3197C63.2372 58.894 63.5153 57.1873 63.7613 55.542Z" fill="#C9810C"/>
<path d="M62.0926 49.4824L60.5674 54.9656" stroke="#9E6509" stroke-width="0.4" stroke-miterlimit="10"/>
<path d="M64.1564 71.0747C64.1564 71.0747 64.9614 72.0993 66.3871 72.6848" stroke="#9E6509" stroke-width="0.4" stroke-miterlimit="10"/>
<path d="M64.4491 72.9785L66.39 73.6021" stroke="#9E6509" stroke-width="0.4" stroke-miterlimit="10"/>
<path d="M66.5363 88.0536H72.1717C72.1717 88.0536 72.0399 87.5061 71.8145 86.5898H65.6024C66.0737 87.4447 66.5363 88.0536 66.5363 88.0536Z" fill="#C9810C"/>
<path d="M56.0796 74.8699C57.072 73.7047 57.9708 72.3229 57.9708 72.3229C56.7793 70.6338 55.9391 67.5658 55.9391 67.5658C55.9391 67.5658 54.531 65.5517 53.6527 63.4673L52.8418 68.8539C51.9313 69.6882 49.241 71.7404 47.8475 72.7913C49.5601 74.6532 52.391 73.0636 54.127 72.6889C54.367 73.693 55.3331 74.4337 56.0767 74.8699H56.0796Z" fill="#C9810C"/>
<path d="M65.0727 28.0067C65.0727 28.0067 65.9509 24.4264 62.1452 23.9287C58.3395 23.431 50.5816 23.9433 50.2889 29.4324C50.2889 29.4324 47.8386 29.8364 46.0821 31.9559C44.3256 34.0754 41.48 38.6891 41.48 38.6891L42.2266 45.8234L50.0371 38.654C50.0371 38.654 50.2918 44.6202 50.0722 45.5336C49.8527 46.447 49.3784 48.426 51.0969 48.5343C52.8153 48.6426 59.6598 48.827 61.6709 49.3774C63.6821 49.9278 66.0973 50.0741 65.3654 46.9622C65.3654 46.9622 66.0973 43.7771 66.4984 42.975C66.8995 42.1728 66.8643 41.1833 66.8643 41.1833C66.8643 41.1833 68.0353 39.9772 68.1436 38.7682C68.1436 38.7682 70.8516 45.2438 75.1316 45.8293C79.4115 46.4148 81.7916 43.4521 82.6318 42.0235C83.472 40.5949 83.2173 38.3993 83.2173 38.3993L83.3871 37.8753C83.3871 37.8753 81.1915 37.24 81.0802 36.069L80.8372 36.4584C80.8372 36.4584 79.1539 35.7265 77.7634 38.0334C77.7634 38.0334 77.9449 36.8975 76.6304 37.521C76.6304 37.521 74.3616 32.7639 72.9711 30.6414C71.5805 28.519 69.057 27.8252 65.0668 28.0067H65.0727Z" fill="#109627"/>
<path d="M68.7498 33.897C68.7498 33.897 69.0045 36.0575 68.2199 38.417" stroke="#2E6617" stroke-width="0.75" stroke-linecap="round" stroke-linejoin="round"/>
<path d="M70.6348 33.4204C70.6348 33.4204 70.4533 36.7519 68.6764 38.4147" stroke="#2E6617" stroke-width="0.75" stroke-linecap="round" stroke-linejoin="round"/>
<path d="M80.8431 36.459C80.8431 36.459 80.7084 37.8378 82.9275 38.3004" stroke="#2E6617" stroke-width="0.75" stroke-linecap="round" stroke-linejoin="round"/>
<path d="M77.5497 38.4155C77.5497 38.4155 76.9642 39.0508 76.4285 40.6902" stroke="#2E6617" stroke-width="0.75" stroke-linecap="round" stroke-linejoin="round"/>
<path d="M76.4285 37.6797C76.4285 37.6797 75.6908 37.7295 74.5696 39.6879" stroke="#2E6617" stroke-width="0.75" stroke-linecap="round" stroke-linejoin="round"/>
<path d="M73.3311 45.2117C72.4265 44.4125 72.1572 43.1009 72.2245 42.2403C72.3153 41.0868 72.1513 39.1108 71.0359 37.3806C71.3638 35.3753 70.1577 33.8793 70.0289 35.2699C69.9001 36.6605 68.1436 38.7653 68.1436 38.7653C68.1436 38.7653 70.105 43.4552 73.3282 45.2117H73.3311Z" fill="url(#paint6_linear_1_1391)"/>
<path d="M80.9542 36.2818C80.9542 36.2818 82.9127 33.366 83.1674 32.1775C83.1674 32.1775 82.3331 30.7957 82.5643 30.055C82.6727 29.7008 83.0884 31.0562 83.3314 30.7254C83.5743 30.3975 83.5509 29.6276 83.3928 29.1036C83.2347 28.5796 83.1352 28.2985 83.3314 28.2868C83.5275 28.2751 83.99 28.9455 84.0749 30.1897C84.0749 30.1897 84.4292 29.4227 84.3296 28.7025C84.233 27.9824 84.6107 28.1522 84.7073 28.6528C84.8039 29.1534 84.8888 29.6891 84.7073 30.3478C84.7073 30.3478 85.0117 30.298 85.1581 29.8237C85.3045 29.3495 85.123 28.9689 85.3543 28.9689C85.5855 28.9689 85.6236 29.6891 85.524 30.1399C85.4274 30.5908 85.1347 30.8367 85.1347 30.8367C85.1347 30.8367 85.6089 30.7752 85.7319 30.3624C85.8549 29.9467 85.9397 29.8003 86.0129 29.8882C86.0861 29.9731 86.0744 30.3273 85.9397 30.6083C85.8051 30.8894 85.2196 31.3168 85.2196 31.3168C85.2196 31.3168 85.0381 32.4029 84.3765 32.7307C84.3765 32.7307 84.2652 35.8046 83.1703 38.0237C83.1703 38.0237 81.3904 37.769 80.9513 36.2876L80.9542 36.2818Z" fill="#D97E7E"/>
<path d="M50.0253 29.4897C50.1073 29.4809 50.1951 29.4634 50.2888 29.4312C50.2888 29.4312 50.1922 29.4487 50.0253 29.4897Z" fill="url(#paint7_linear_1_1391)"/>
<path d="M55.851 28.9343C55.5231 28.6738 53.4914 28.7382 53.4182 28.1351C53.3451 27.5321 52.5049 27.4765 52.1389 27.0549C51.773 26.6333 52.1243 25.84 52.7566 25.3862C51.3661 26.2586 50.3912 27.5526 50.2887 29.432C52.0072 28.8407 55.851 28.9343 55.851 28.9343Z" fill="url(#paint8_linear_1_1391)"/>
<path d="M65.0725 28.0068C65.0725 28.0068 64.9818 28.364 64.5602 28.9349C64.1386 29.5057 64.4138 30.1293 63.8459 30.4952" stroke="#2E6617" stroke-width="0.75" stroke-linecap="round" stroke-linejoin="round"/>
<path d="M59.7038 30.4937C59.7038 30.4937 58.8256 31.0909 59.1183 32.0686C59.4111 33.0464 59.7419 33.7022 59.3818 34.2643C59.0217 34.8263 58.1932 35.2391 58.3132 36.2901C58.4362 37.3381 59.0012 37.4845 59.0012 37.4845" stroke="white" stroke-linecap="round" stroke-linejoin="round"/>
<path d="M61.9987 30.4937C61.9987 30.4937 62.5988 30.7981 62.3471 31.8725C62.0953 32.9469 61.5332 33.2631 61.6328 34.2145C61.7294 35.1659 62.7072 35.3855 62.6808 36.0442C62.6574 36.7029 62.3471 36.9722 62.3471 36.9722" stroke="white" stroke-linecap="round" stroke-linejoin="round"/>
<path d="M51.2871 31.6279C51.2871 31.6279 52.019 34.9945 50.2859 38.3114" stroke="#2E6617" stroke-width="0.75" stroke-linecap="round" stroke-linejoin="round"/>
<path d="M54.0184 28.9476C56.2257 28.6753 56.5565 29.4072 57.0191 29.6268C57.4816 29.8463 57.8739 29.9693 58.4331 30.2357" stroke="#2E6617" stroke-width="0.75" stroke-linecap="round" stroke-linejoin="round"/>
<path d="M63.8459 44.5454C63.8459 44.5454 64.8881 45.4968 65.3653 46.9606" stroke="#2E6617" stroke-width="0.75" stroke-linecap="round" stroke-linejoin="round"/>
<path d="M65.784 22.6075L64.9438 23.7609C64.9438 23.7609 64.6657 25.7311 64.048 26.0122C63.5445 26.2405 62.9882 25.8102 62.9882 25.8102L62.2651 28.3512C62.2007 28.5796 62.0192 28.7581 61.7909 28.8167C61.1703 28.9748 59.9173 29.127 59.083 28.1521C58.881 27.9179 58.8605 27.5754 59.0156 27.3061L60.8307 24.162C60.8307 24.162 59.4226 22.8095 60.9214 21.5624C62.4203 20.3153 65.5674 20.4821 65.7869 22.6046L65.784 22.6075Z" fill="#D97E7E"/>
<path d="M61.1588 23.9292L60.828 24.1634C60.828 24.1634 60.547 25.1997 60.9129 25.431C61.2788 25.6623 61.6682 25.5891 61.8028 26.1746C61.8965 26.5903 62.1219 27.1553 62.523 27.4393L62.9885 25.8086C62.9885 25.8086 61.6623 25.1558 61.1588 23.9263V23.9292Z" fill="#D95757"/>
<path d="M64.6132 21.987C64.6132 21.987 65.5998 23.4302 66.7884 22.8799C67.7486 22.4349 68.1994 20.614 66.7181 20.046C66.7181 20.046 66.8235 18.0114 64.1946 19.077C64.1946 19.077 63.0236 18.2251 62.1336 18.5794C61.2437 18.9336 61.2291 19.9465 61.2291 19.9465C61.2291 19.9465 59.5955 19.5747 59.4345 21.138C59.2735 22.7013 60.0551 23.2341 60.0551 23.2341C60.0551 23.2341 59.7536 24.6012 60.1605 24.9935C60.5704 25.3829 61.1559 23.9279 61.1559 23.9279C61.1559 23.9279 60.5879 22.8623 61.191 22.5432C61.7941 22.2241 61.7414 23.237 61.7414 23.237C61.7414 23.237 62.4703 23.5385 62.807 22.5081C62.807 22.5081 63.9487 22.9765 64.6132 21.987Z" fill="#333333"/>
<path d="M59.7301 53.0728C59.7301 53.0728 62.0428 58.3217 62.4351 59.1854" stroke="#9E6509" stroke-width="0.4" stroke-miterlimit="10"/>
<path d="M85.956 21.8144L82.4451 20.8625C81.9722 20.7343 81.485 21.0137 81.3568 21.4865L78.7668 31.0391C78.6386 31.5119 78.918 31.9992 79.3908 32.1274L82.9017 33.0793C83.3745 33.2075 83.8618 32.9281 83.99 32.4553L86.58 22.9027C86.7082 22.4299 86.4288 21.9426 85.956 21.8144Z" fill="#F14985"/>
<path d="M82.5878 22.2866L81.9407 19.5197C81.8103 18.961 81.9364 18.3678 82.3076 17.9298C82.8231 17.318 83.255 16.6108 83.5669 15.8072C84.7989 12.631 83.6719 8.94477 80.8686 7.00851C77.1294 4.42718 72.0248 5.73927 69.9814 9.75856C68.3117 13.0369 69.3356 17.1302 72.3561 19.229C74.2258 20.5282 76.4401 20.85 78.4417 20.3458C79.0117 20.2016 79.6138 20.3532 80.0631 20.7343L82.1912 22.5343C82.3736 22.6869 82.6445 22.5221 82.5888 22.2906L82.5878 22.2866Z" fill="#3C72E8"/>
<path d="M77.2427 15.8242C77.0525 15.7144 76.8435 15.6782 76.6416 15.7002L75.0994 12.5281C75.1566 12.4699 75.2103 12.4062 75.2527 12.3327C75.2952 12.2591 75.3235 12.1808 75.3453 12.1021L78.8635 11.8516C78.9455 12.0376 79.0813 12.2005 79.2714 12.3103C79.743 12.5825 80.3468 12.4207 80.6191 11.9491C80.8914 11.4776 80.7296 10.8737 80.258 10.6015C79.7864 10.3292 79.1826 10.491 78.9103 10.9626C78.8679 11.0361 78.8396 11.1144 78.8178 11.1931L75.2995 11.4436C75.2176 11.2577 75.0818 11.0948 74.8916 10.985C74.4201 10.7127 73.8162 10.8745 73.544 11.3461C73.2717 11.8177 73.4335 12.4215 73.9051 12.6938C74.0952 12.8036 74.3042 12.8397 74.5062 12.8177L76.0484 15.9899C75.9911 16.0481 75.9375 16.1117 75.895 16.1853C75.6228 16.6568 75.7846 17.2607 76.2561 17.5329C76.7277 17.8052 77.3315 17.6434 77.6038 17.1718C77.876 16.7003 77.7142 16.0964 77.2427 15.8242Z" fill="white"/>
<path d="M58.1841 21.6144H25.3789C23.9708 21.6144 22.8317 20.4753 22.8317 19.0672V2.54725C22.8317 1.13911 23.9708 0 25.3789 0H49.5692C50.9774 0 52.1165 1.13911 52.1165 2.54725V15.6269C52.1165 16.5772 52.5687 17.4701 53.3357 18.0368L58.1841 21.6144Z" fill="#7B61FF"/>
<path d="M35.7109 11.392C35.6308 10.2644 35.0641 9.23404 34.1539 8.56432L33.0892 7.78011C33.8334 7.3279 34.3371 6.50934 34.3371 5.57058C34.3371 4.13954 33.1751 2.97754 31.744 2.97754C30.313 2.97754 29.151 4.13954 29.151 5.57058C29.151 6.50934 29.6547 7.32217 30.3989 7.78011L29.3342 8.56432C28.4298 9.23404 27.8573 10.2701 27.7772 11.392L27.5139 15.1128H35.9627L35.6994 11.392H35.7109Z" fill="#C9DAFF"/>
<path d="M39.1741 13.8198C39.0939 12.6921 38.5272 11.6618 37.6171 10.9921L36.5524 10.2078C37.2965 9.75563 37.8003 8.93708 37.8003 7.99832C37.8003 6.56728 36.6383 5.40527 35.2072 5.40527C33.7762 5.40527 32.6142 6.56728 32.6142 7.99832C32.6142 8.93708 33.1179 9.74991 33.862 10.2078L32.7973 10.9921C31.8929 11.6618 31.3205 12.6978 31.2404 13.8198L30.9771 17.5405H39.4259L39.1626 13.8198H39.1741Z" fill="white"/>
<path d="M46.5297 10.0869H43.9081V7.45947H42.9235V10.0869H40.3018V11.0714H42.9235V13.6931H43.9081V11.0714H46.5297V10.0869Z" fill="white"/>
<path d="M83 111H194C194 111 191.736 109.309 189.188 107.618C186.639 105.927 184.94 105.644 183.526 105.927C181.687 101.277 176.87 100.571 174.606 97.4728C173.191 92.9623 168.375 91.1319 163.138 91.5547C157.616 84.7911 151.355 85.497 148.259 85.3533C143.319 81.126 139.776 81.5488 138.502 81.832C135.389 78.3107 132.84 75.9139 129.582 75.4911C129.582 75.4911 127.459 68.6937 124.061 69.0108C120.663 69.3278 117.052 81.4811 117.052 81.4811C117.052 81.4811 111.212 83.4088 109.513 89.999C109.513 89.999 108.451 87.2936 105.584 85.7084C105.584 85.7084 105.265 79.0505 102.823 78.9448C100.381 78.8391 98.0447 92.1549 98.0447 92.1549C98.0447 92.1549 91.7796 92.3663 90.9301 98.1788C90.9301 98.1788 83 97.0163 83 111Z" fill="url(#paint9_linear_1_1391)"/>
<path d="M40.1084 111H120C120 111 116.642 110.583 114.543 108.078C112.444 105.573 111.324 104.739 109.368 104.739C106.291 98.6148 102.513 97.7799 99.9946 98.0596C94.2565 89.5732 89.3622 89.4312 83.7627 88.4586C77.8862 77.885 70.3306 73.7441 66.4143 75.3262C62.498 76.9082 61.6585 84.7017 61.6585 84.7017C61.6585 84.7017 53.1249 87.1061 52.0042 93.0003C45.8464 94.3027 44.4486 102.096 44.3101 104.601C41.0906 104.601 39.5543 109.055 40.1126 111H40.1084Z" fill="url(#paint10_linear_1_1391)"/>
<path d="M88.5496 74.9536C87.9202 74.778 87.5162 73.9056 89.0268 71.8007L89.0414 71.7802C89.7909 70.7322 89.7616 69.327 88.9946 68.2936C88.6023 67.7666 88.21 67.2719 87.8207 66.824C87.4372 66.379 87.039 65.9662 86.635 65.5739C86.837 66.5781 86.6087 67.5441 85.9764 68.1062C85.4904 68.5395 84.012 67.831 84.6648 66.1477C85.0688 65.0968 84.7029 63.8965 83.7661 63.2729C79.8696 60.6763 76.1341 60 76.1341 60C76.8894 61.1037 77.1968 63.6037 77.0417 66.5488C77.0036 67.2836 77.4193 67.9686 78.0926 68.2643L78.1043 68.2702C80.4317 69.2831 81.3421 70.1028 80.9996 71.0044C80.6395 71.9529 78.7572 71.7539 76.7196 69.6929C76.4942 71.1772 76.1663 72.6907 75.7301 74.1281C75.455 75.0385 75.777 76.0222 76.5586 76.5696L76.5733 76.5813C78.7367 78.0948 79.694 78.5369 79.571 79.4444C79.4481 80.3519 77.8292 79.986 76.178 78.2353C75.6716 77.6996 75.2647 77.0936 74.9397 76.4935C74.1815 78.9204 73.8653 81.2624 74.0527 83.5897C74.1376 84.6641 75.0188 85.5014 76.0932 85.5453H76.1136C78.9504 85.6624 80.0745 85.5072 80.4902 86.4001C80.9059 87.2901 79.2256 87.9019 76.7167 87.2725C75.9204 87.0734 75.1768 86.7485 74.5182 86.3796C74.9924 88.2239 75.7945 90.08 76.9743 91.977C77.2846 92.4776 77.6213 92.9167 77.9755 93.3031C78.4761 93.8447 79.3368 93.8857 79.8784 93.3822C79.8813 93.3793 79.8843 93.3763 79.8901 93.3734C81.3012 92.0502 81.7608 91.4295 82.3931 91.652C83.0255 91.8745 82.5219 92.984 81.0172 93.9033C80.5224 94.2048 79.9926 94.4097 79.4832 94.5532C82.9845 96.7137 87.3698 94.8459 88.5701 91.1631C90.8506 89.6409 92.2851 87.82 93.099 85.8527C91.7113 86.4821 90.8243 86.1981 90.8301 85.8146C90.8389 85.1969 91.3366 84.9452 92.8443 84.7812H92.8501C93.2541 84.7373 93.582 84.4358 93.6698 84.0376C94.1031 82.0674 94.0065 80.0006 93.5673 77.9719C92.1329 80.4924 90.2944 81.0809 89.744 80.8262C89.0034 80.4807 88.617 79.339 90.9912 78.2324C91.1551 78.1563 91.3132 78.0743 91.4683 77.9865C92.6042 77.3425 93.0433 75.9285 92.5691 74.7136C92.0597 73.4108 91.4391 72.1608 90.7628 70.9986C90.4847 73.1796 89.3342 75.182 88.5467 74.9624L88.5496 74.9536Z" fill="url(#paint11_linear_1_1391)"/>
<path d="M77.5423 61.0312C77.5423 61.0312 84.6034 66.9858 85.7685 75.8766C86.9337 84.7674 86.7756 92.0012 92.4608 96.0675" stroke="white" stroke-width="0.63" stroke-miterlimit="10"/>
<path d="M82.3843 74.6741C83.0372 75.2743 83.3387 76.0061 83.0547 76.3135C82.7737 76.6209 82.0155 76.3809 81.3656 75.7836C80.7157 75.1864 80.4112 74.4516 80.6952 74.1443C80.9762 73.8369 81.7344 74.0769 82.3843 74.6741Z" fill="#73D9AB"/>
<path d="M83.3007 81.8041C84.3019 82.3252 84.9167 83.1302 84.6707 83.6016C84.4248 84.0729 83.4149 84.029 82.4136 83.5079C81.4124 82.9868 80.7977 82.1817 81.0436 81.7104C81.2895 81.2391 82.2995 81.283 83.3007 81.8041Z" fill="#73D9AB"/>
<path d="M87.5104 71.3502C87.3172 72.2138 86.8313 72.8432 86.4273 72.7524C86.0203 72.6617 85.8476 71.8888 86.0408 71.0223C86.234 70.1587 86.72 69.5293 87.124 69.62C87.5309 69.7108 87.7036 70.4836 87.5104 71.3502Z" fill="#73D9AB"/>
<path d="M88.535 77.9078C88.0988 78.3381 87.5835 78.5196 87.3815 78.3176C87.1795 78.1127 87.3698 77.6004 87.8031 77.17C88.2364 76.7397 88.7545 76.5582 88.9565 76.7602C89.1585 76.9651 88.9682 77.4774 88.535 77.9078Z" fill="#73D9AB"/>
<defs>
<linearGradient id="paint0_linear_1_1391" x1="40.2508" y1="94.3517" x2="-0.0486561" y2="61.508" gradientUnits="userSpaceOnUse">
<stop stop-color="white" stop-opacity="0"/>
<stop offset="1" stop-color="#8FB2FF"/>
</linearGradient>
<linearGradient id="paint1_linear_1_1391" x1="21.3827" y1="63.8628" x2="47.3437" y2="63.8628" gradientUnits="userSpaceOnUse">
<stop stop-color="#66B58A"/>
<stop offset="0.92" stop-color="#407ABD"/>
</linearGradient>
<linearGradient id="paint2_linear_1_1391" x1="120.925" y1="57.3014" x2="101.896" y2="87.4545" gradientUnits="userSpaceOnUse">
<stop stop-color="#66B58A"/>
<stop offset="0.92" stop-color="#407ABD"/>
</linearGradient>
<linearGradient id="paint3_linear_1_1391" x1="56.2399" y1="12.7642" x2="56.2399" y2="103.224" gradientUnits="userSpaceOnUse">
<stop stop-color="#1051B3"/>
<stop offset="1" stop-color="#16367C"/>
</linearGradient>
<linearGradient id="paint4_linear_1_1391" x1="60.5966" y1="70.797" x2="65.8661" y2="23.9571" gradientUnits="userSpaceOnUse">
<stop stop-color="#ADC7FF" stop-opacity="0"/>
<stop offset="1" stop-color="#ADC7FF"/>
</linearGradient>
<linearGradient id="paint5_linear_1_1391" x1="46.989" y1="91.0455" x2="82.5551" y2="91.0455" gradientUnits="userSpaceOnUse">
<stop stop-color="#ADC7FF" stop-opacity="0"/>
<stop offset="1" stop-color="#ADC7FF"/>
</linearGradient>
<linearGradient id="paint6_linear_1_1391" x1="73.8405" y1="39.9861" x2="67.2039" y2="39.9363" gradientUnits="userSpaceOnUse">
<stop stop-color="#0A631A" stop-opacity="0"/>
<stop offset="1" stop-color="#0A631A"/>
</linearGradient>
<linearGradient id="paint7_linear_1_1391" x1="54.6771" y1="29.6244" x2="48.6377" y2="29.4048" gradientUnits="userSpaceOnUse">
<stop stop-color="#0A631A" stop-opacity="0"/>
<stop offset="1" stop-color="#0A631A"/>
</linearGradient>
<linearGradient id="paint8_linear_1_1391" x1="54.7532" y1="27.5292" x2="48.7138" y2="27.3096" gradientUnits="userSpaceOnUse">
<stop stop-color="#0A631A" stop-opacity="0"/>
<stop offset="1" stop-color="#0A631A"/>
</linearGradient>
<linearGradient id="paint9_linear_1_1391" x1="166.812" y1="89.999" x2="73.133" y2="89.999" gradientUnits="userSpaceOnUse">
<stop stop-color="#B7EBCF"/>
<stop offset="0.92" stop-color="#4099BD"/>
</linearGradient>
<linearGradient id="paint10_linear_1_1391" x1="108.314" y1="93.0003" x2="16.5435" y2="93.0003" gradientUnits="userSpaceOnUse">
<stop stop-color="#B7EBCF"/>
<stop offset="0.92" stop-color="#4099BD"/>
</linearGradient>
<linearGradient id="paint11_linear_1_1391" x1="79.1377" y1="60.8226" x2="85.871" y2="90.0975" gradientUnits="userSpaceOnUse">
<stop stop-color="#66B58A"/>
<stop offset="0.92" stop-color="#407ABD"/>
</linearGradient>
</defs>
</svg>
